<?xml version="1.0" encoding="UTF-8" standalone="no"?>
<!DOCTYPE svg PUBLIC "-//W3C//DTD SVG 1.1//EN"
 "http://www.w3.org/Graphics/SVG/1.1/DTD/svg11.dtd">
<!-- Generated by graphviz version 2.36.0 (20140111.2315)
 -->
<!-- Title: G Pages: 1 -->
<svg width="1327pt" height="778pt"
 viewBox="0.00 0.00 1327.00 778.00" xmlns="http://www.w3.org/2000/svg" xmlns:xlink="http://www.w3.org/1999/xlink">
<g id="graph0" class="graph" transform="scale(1 1) rotate(0) translate(4 774)">
<title>G</title>
<polygon fill="white" stroke="none" points="-4,4 -4,-774 1323,-774 1323,4 -4,4"/>
<!-- Repository -->
<g id="node1" class="node"><title>Repository</title>
<ellipse fill="none" stroke="black" cx="508" cy="-752" rx="49.0941" ry="18"/>
<text text-anchor="middle" x="508" y="-748.3" font-family="Times,serif" font-size="14.00">Repository</text>
</g>
<!-- Body -->
<g id="node2" class="node"><title>Body</title>
<ellipse fill="none" stroke="black" cx="286" cy="-614" rx="29.3479" ry="18"/>
<text text-anchor="middle" x="286" y="-610.3" font-family="Times,serif" font-size="14.00">Body</text>
</g>
<!-- Repository&#45;&gt;Body -->
<g id="edge1" class="edge"><title>Repository&#45;&gt;Body</title>
<path fill="none" stroke="black" d="M480.782,-736.705C461.385,-726.341 434.813,-711.782 412,-698 377.303,-677.038 338.511,-651.089 313.255,-633.842"/>
<polygon fill="black" stroke="black" points="315.142,-630.892 304.914,-628.127 311.185,-636.667 315.142,-630.892"/>
</g>
<!-- Benutzer -->
<g id="node4" class="node"><title>Benutzer</title>
<ellipse fill="none" stroke="black" cx="558" cy="-614" rx="42.3701" ry="18"/>
<text text-anchor="middle" x="558" y="-610.3" font-family="Times,serif" font-size="14.00">Benutzer</text>
</g>
<!-- Repository&#45;&gt;Benutzer -->
<g id="edge3" class="edge"><title>Repository&#45;&gt;Benutzer</title>
<path fill="none" stroke="black" d="M514.231,-734.05C522.727,-710.942 538.038,-669.296 548.111,-641.898"/>
<polygon fill="black" stroke="black" points="551.524,-642.757 551.69,-632.163 544.954,-640.341 551.524,-642.757"/>
</g>
<!-- subscribed / starred -->
<g id="node6" class="node"><title>subscribed / starred</title>
<ellipse fill="none" stroke="black" cx="702" cy="-614" rx="78.9573" ry="79.0964"/>
<ellipse fill="none" stroke="black" cx="702" cy="-614" rx="82.9403" ry="83.0864"/>
<text text-anchor="middle" x="702" y="-610.3" font-family="Times,serif" font-size="14.00">subscribed / starred</text>
</g>
<!-- Repository&#45;&gt;subscribed / starred -->
<g id="edge5" class="edge"><title>Repository&#45;&gt;subscribed / starred</title>
<path fill="none" stroke="black" d="M538.277,-737.519C558.943,-727.749 586.538,-713.564 609,-698 617.492,-692.116 626.052,-685.539 634.358,-678.734"/>
<polygon fill="black" stroke="black" points="636.803,-681.251 642.233,-672.154 632.315,-675.88 636.803,-681.251"/>
</g>
<!-- Dateien -->
<g id="node7" class="node"><title>Dateien</title>
<ellipse fill="none" stroke="black" cx="459" cy="-614" rx="38.0212" ry="18"/>
<text text-anchor="middle" x="459" y="-610.3" font-family="Times,serif" font-size="14.00">Dateien</text>
</g>
<!-- Repository&#45;&gt;Dateien -->
<g id="edge6" class="edge"><title>Repository&#45;&gt;Dateien</title>
<path fill="none" stroke="black" d="M501.893,-734.05C493.567,-710.942 478.562,-669.296 468.691,-641.898"/>
<polygon fill="black" stroke="black" points="471.866,-640.385 465.184,-632.163 465.281,-642.758 471.866,-640.385"/>
</g>
<!-- Tickets -->
<g id="node22" class="node"><title>Tickets</title>
<ellipse fill="none" stroke="black" cx="158" cy="-614" rx="36.096" ry="18"/>
<text text-anchor="middle" x="158" y="-610.3" font-family="Times,serif" font-size="14.00">Tickets</text>
</g>
<!-- Repository&#45;&gt;Tickets -->
<g id="edge29" class="edge"><title>Repository&#45;&gt;Tickets</title>
<path fill="none" stroke="black" d="M459.209,-748.981C404.725,-744.987 315.241,-733.132 247,-698 219.058,-683.615 193.539,-657.924 177.061,-638.923"/>
<polygon fill="black" stroke="black" points="179.699,-636.622 170.572,-631.241 174.352,-641.139 179.699,-636.622"/>
</g>
<!-- Commits -->
<g id="node24" class="node"><title>Commits</title>
<ellipse fill="none" stroke="black" cx="1003" cy="-614" rx="44.2946" ry="18"/>
<text text-anchor="middle" x="1003" y="-610.3" font-family="Times,serif" font-size="14.00">Commits</text>
</g>
<!-- Repository&#45;&gt;Commits -->
<g id="edge32" class="edge"><title>Repository&#45;&gt;Commits</title>
<path fill="none" stroke="black" d="M553.71,-745.329C610.709,-737.621 710.784,-721.986 794,-698 855.819,-680.181 924.652,-650.911 965.854,-632.315"/>
<polygon fill="black" stroke="black" points="967.559,-635.385 975.213,-628.06 964.661,-629.013 967.559,-635.385"/>
</g>
<!-- Wordcount -->
<g id="node3" class="node"><title>Wordcount</title>
<ellipse fill="none" stroke="black" cx="414" cy="-91" rx="50.5539" ry="50.8774"/>
<ellipse fill="none" stroke="black" cx="414" cy="-91" rx="54.5427" ry="54.8917"/>
<text text-anchor="middle" x="414" y="-87.3" font-family="Times,serif" font-size="14.00">Wordcount</text>
</g>
<!-- Body&#45;&gt;Wordcount -->
<g id="edge2" class="edge"><title>Body&#45;&gt;Wordcount</title>
<path fill="none" stroke="black" d="M273.037,-597.591C257.591,-579.846 230.412,-550.511 203,-530 176.247,-509.982 154.056,-522.732 137,-494 90.7179,-416.036 95.5264,-370.625 137,-290 182.231,-202.071 286.617,-144.515 353.542,-115.18"/>
<polygon fill="black" stroke="black" points="355.329,-118.221 363.133,-111.056 352.564,-111.791 355.329,-118.221"/>
</g>
<!-- E&#45;Mail Endung -->
<g id="node5" class="node"><title>E&#45;Mail Endung</title>
<ellipse fill="none" stroke="black" cx="814" cy="-392" rx="65.4761" ry="65.7804"/>
<ellipse fill="none" stroke="black" cx="814" cy="-392" rx="69.4659" ry="69.7886"/>
<text text-anchor="middle" x="814" y="-388.3" font-family="Times,serif" font-size="14.00">E&#45;Mail Endung</text>
</g>
<!-- Benutzer&#45;&gt;E&#45;Mail Endung -->
<g id="edge4" class="edge"><title>Benutzer&#45;&gt;E&#45;Mail Endung</title>
<path fill="none" stroke="black" d="M564.296,-596.122C572.168,-577.29 587.416,-547.214 610,-530 654.284,-496.245 683.554,-524.712 730,-494 744.471,-484.431 757.759,-471.63 769.29,-458.364"/>
<polygon fill="black" stroke="black" points="772.125,-460.431 775.871,-450.52 766.762,-455.931 772.125,-460.431"/>
</g>
<!-- EndungenCount -->
<g id="node8" class="node"><title>EndungenCount</title>
<ellipse fill="none" stroke="black" cx="218" cy="-392" rx="67.4021" ry="67.6829"/>
<ellipse fill="none" stroke="black" cx="218" cy="-392" rx="71.3907" ry="71.6881"/>
<text text-anchor="middle" x="218" y="-388.3" font-family="Times,serif" font-size="14.00">EndungenCount</text>
</g>
<!-- Dateien&#45;&gt;EndungenCount -->
<g id="edge7" class="edge"><title>Dateien&#45;&gt;EndungenCount</title>
<path fill="none" stroke="black" d="M437.831,-598.888C406.908,-577.813 348.259,-536.074 304,-494 291.791,-482.394 279.538,-469.174 268.263,-456.211"/>
<polygon fill="black" stroke="black" points="270.916,-453.928 261.745,-448.623 265.606,-458.489 270.916,-453.928"/>
</g>
<!-- Typen -->
<g id="node9" class="node"><title>Typen</title>
<ellipse fill="none" stroke="black" cx="655" cy="-392" rx="33.2209" ry="18"/>
<text text-anchor="middle" x="655" y="-388.3" font-family="Times,serif" font-size="14.00">Typen</text>
</g>
<!-- Dateien&#45;&gt;Typen -->
<g id="edge8" class="edge"><title>Dateien&#45;&gt;Typen</title>
<path fill="none" stroke="black" d="M464.714,-595.947C471.813,-577.242 485.66,-547.554 507,-530 545.099,-498.659 575.88,-527.602 612,-494 633.08,-474.39 644.255,-442.751 649.874,-420.11"/>
<polygon fill="black" stroke="black" points="653.343,-420.64 652.143,-410.113 646.517,-419.09 653.343,-420.64"/>
</g>
<!-- Namen? -->
<g id="node20" class="node"><title>Namen?</title>
<ellipse fill="none" stroke="black" cx="390" cy="-392" rx="39.9779" ry="40.1121"/>
<ellipse fill="none" stroke="black" cx="390" cy="-392" rx="43.9462" ry="44.0938"/>
<text text-anchor="middle" x="390" y="-388.3" font-family="Times,serif" font-size="14.00">Namen?</text>
</g>
<!-- Dateien&#45;&gt;Namen? -->
<g id="edge27" class="edge"><title>Dateien&#45;&gt;Namen?</title>
<path fill="none" stroke="black" d="M453.7,-596.102C443.633,-564.003 421.38,-493.053 406.036,-444.129"/>
<polygon fill="black" stroke="black" points="409.301,-442.845 402.969,-434.351 402.622,-444.94 409.301,-442.845"/>
</g>
<!-- Groesse / Anzahl -->
<g id="node21" class="node"><title>Groesse / Anzahl</title>
<ellipse fill="none" stroke="black" cx="528" cy="-392" rx="71.2539" ry="71.4876"/>
<ellipse fill="none" stroke="black" cx="528" cy="-392" rx="75.2405" ry="75.4873"/>
<text text-anchor="middle" x="528" y="-388.3" font-family="Times,serif" font-size="14.00">Groesse / Anzahl</text>
</g>
<!-- Dateien&#45;&gt;Groesse / Anzahl -->
<g id="edge28" class="edge"><title>Dateien&#45;&gt;Groesse / Anzahl</title>
<path fill="none" stroke="black" d="M464.3,-596.102C472.458,-570.09 488.619,-518.563 502.621,-473.92"/>
<polygon fill="black" stroke="black" points="506.011,-474.806 505.664,-464.217 499.331,-472.711 506.011,-474.806"/>
</g>
<!-- PDF -->
<g id="node10" class="node"><title>PDF</title>
<ellipse fill="none" stroke="black" cx="677" cy="-236" rx="27" ry="18"/>
<text text-anchor="middle" x="677" y="-232.3" font-family="Times,serif" font-size="14.00">PDF</text>
</g>
<!-- Typen&#45;&gt;PDF -->
<g id="edge9" class="edge"><title>Typen&#45;&gt;PDF</title>
<path fill="none" stroke="black" d="M657.438,-373.931C661.238,-347.335 668.603,-295.776 673.133,-264.072"/>
<polygon fill="black" stroke="black" points="676.601,-264.54 674.551,-254.146 669.672,-263.55 676.601,-264.54"/>
</g>
<!-- RAR -->
<g id="node12" class="node"><title>RAR</title>
<ellipse fill="none" stroke="black" cx="835" cy="-236" rx="28.3955" ry="18"/>
<text text-anchor="middle" x="835" y="-232.3" font-family="Times,serif" font-size="14.00">RAR</text>
</g>
<!-- Typen&#45;&gt;RAR -->
<g id="edge12" class="edge"><title>Typen&#45;&gt;RAR</title>
<path fill="none" stroke="black" d="M658.692,-373.984C664.347,-351.777 677.207,-313.039 702,-290 735.076,-259.264 755.263,-271.227 797,-254 799.063,-253.149 801.18,-252.255 803.31,-251.343"/>
<polygon fill="black" stroke="black" points="804.828,-254.499 812.589,-247.287 802.024,-248.085 804.828,-254.499"/>
</g>
<!-- ZIP -->
<g id="node13" class="node"><title>ZIP</title>
<ellipse fill="none" stroke="black" cx="295" cy="-236" rx="27" ry="18"/>
<text text-anchor="middle" x="295" y="-232.3" font-family="Times,serif" font-size="14.00">ZIP</text>
</g>
<!-- Typen&#45;&gt;ZIP -->
<g id="edge14" class="edge"><title>Typen&#45;&gt;ZIP</title>
<path fill="none" stroke="black" d="M652.927,-373.897C649.157,-350.846 638.897,-310.357 612,-290 511.602,-214.016 451.855,-289.316 331,-254 329.059,-253.433 327.092,-252.774 325.13,-252.05"/>
<polygon fill="black" stroke="black" points="326.082,-248.655 315.505,-248.034 323.386,-255.115 326.082,-248.655"/>
</g>
<!-- Word -->
<g id="node14" class="node"><title>Word</title>
<ellipse fill="none" stroke="black" cx="601" cy="-236" rx="31.2965" ry="18"/>
<text text-anchor="middle" x="601" y="-232.3" font-family="Times,serif" font-size="14.00">Word</text>
</g>
<!-- Typen&#45;&gt;Word -->
<g id="edge16" class="edge"><title>Typen&#45;&gt;Word</title>
<path fill="none" stroke="black" d="M649.118,-374.226C639.745,-347.496 621.345,-295.021 610.213,-263.274"/>
<polygon fill="black" stroke="black" points="613.486,-262.032 606.874,-253.753 606.881,-264.348 613.486,-262.032"/>
</g>
<!-- Text -->
<g id="node15" class="node"><title>Text</title>
<ellipse fill="none" stroke="black" cx="367" cy="-236" rx="27" ry="18"/>
<text text-anchor="middle" x="367" y="-232.3" font-family="Times,serif" font-size="14.00">Text</text>
</g>
<!-- Typen&#45;&gt;Text -->
<g id="edge19" class="edge"><title>Typen&#45;&gt;Text</title>
<path fill="none" stroke="black" d="M652.733,-373.673C648.763,-350.747 638.302,-310.814 612,-290 538.086,-231.51 492.882,-282.384 403,-254 401.072,-253.391 399.115,-252.7 397.16,-251.952"/>
<polygon fill="black" stroke="black" points="398.127,-248.56 387.554,-247.873 395.39,-255.003 398.127,-248.56"/>
</g>
<!-- PPT -->
<g id="node16" class="node"><title>PPT</title>
<ellipse fill="none" stroke="black" cx="525" cy="-236" rx="27" ry="18"/>
<text text-anchor="middle" x="525" y="-232.3" font-family="Times,serif" font-size="14.00">PPT</text>
</g>
<!-- Typen&#45;&gt;PPT -->
<g id="edge21" class="edge"><title>Typen&#45;&gt;PPT</title>
<path fill="none" stroke="black" d="M651.172,-373.898C645.622,-352.295 633.568,-314.937 612,-290 603.547,-280.226 576.398,-264.342 554.651,-252.508"/>
<polygon fill="black" stroke="black" points="556.197,-249.365 545.731,-247.713 552.882,-255.531 556.197,-249.365"/>
</g>
<!-- Binary -->
<g id="node17" class="node"><title>Binary</title>
<ellipse fill="none" stroke="black" cx="446" cy="-236" rx="34.1708" ry="18"/>
<text text-anchor="middle" x="446" y="-232.3" font-family="Times,serif" font-size="14.00">Binary</text>
</g>
<!-- Typen&#45;&gt;Binary -->
<g id="edge24" class="edge"><title>Typen&#45;&gt;Binary</title>
<path fill="none" stroke="black" d="M652.297,-373.718C647.87,-351.217 636.93,-312.154 612,-290 569.423,-252.163 542.875,-272.49 489,-254 486.608,-253.179 484.154,-252.303 481.689,-251.397"/>
<polygon fill="black" stroke="black" points="482.828,-248.086 472.237,-247.814 480.347,-254.632 482.828,-248.086"/>
</g>
<!-- Image -->
<g id="node18" class="node"><title>Image</title>
<ellipse fill="none" stroke="black" cx="755" cy="-236" rx="33.2209" ry="18"/>
<text text-anchor="middle" x="755" y="-232.3" font-family="Times,serif" font-size="14.00">Image</text>
</g>
<!-- Typen&#45;&gt;Image -->
<g id="edge25" class="edge"><title>Typen&#45;&gt;Image</title>
<path fill="none" stroke="black" d="M660.833,-373.952C668.44,-353.059 683.041,-317.098 702,-290 710.005,-278.558 720.612,-267.396 730.233,-258.289"/>
<polygon fill="black" stroke="black" points="732.671,-260.802 737.669,-251.46 727.936,-255.646 732.671,-260.802"/>
</g>
<!-- PDF&#45;&gt;Wordcount -->
<g id="edge10" class="edge"><title>PDF&#45;&gt;Wordcount</title>
<path fill="none" stroke="black" d="M655.899,-224.421C651.06,-222.168 645.898,-219.899 641,-218 590.273,-198.334 571.95,-207.706 524,-182 501.356,-169.86 478.935,-152.707 460.301,-136.626"/>
<polygon fill="black" stroke="black" points="462.378,-133.793 452.557,-129.818 457.756,-139.05 462.378,-133.793"/>
</g>
<!-- Mediendichte -->
<g id="node11" class="node"><title>Mediendichte</title>
<ellipse fill="none" stroke="black" cx="593" cy="-91" rx="59.1941" ry="18"/>
<text text-anchor="middle" x="593" y="-87.3" font-family="Times,serif" font-size="14.00">Mediendichte</text>
</g>
<!-- PDF&#45;&gt;Mediendichte -->
<g id="edge11" class="edge"><title>PDF&#45;&gt;Mediendichte</title>
<path fill="none" stroke="black" d="M667.527,-218.874C653.125,-194.355 625.574,-147.453 608.305,-118.055"/>
<polygon fill="black" stroke="black" points="611.172,-116.026 603.089,-109.176 605.136,-119.571 611.172,-116.026"/>
</g>
<!-- RAR&#45;&gt;Dateien -->
<g id="edge13" class="edge"><title>RAR&#45;&gt;Dateien</title>
<path fill="none" stroke="black" d="M812.83,-247.48C784.952,-260.85 740.091,-283.073 735,-290 680.383,-364.314 762.113,-428.686 697,-494 636.32,-554.867 577.107,-480.281 507,-530 487.664,-543.713 474.987,-567.853 467.544,-586.576"/>
<polygon fill="black" stroke="black" points="464.225,-585.462 464.03,-596.055 470.788,-587.895 464.225,-585.462"/>
</g>
<!-- ZIP&#45;&gt;Dateien -->
<g id="edge15" class="edge"><title>ZIP&#45;&gt;Dateien</title>
<path fill="none" stroke="black" d="M296.396,-254.11C300.726,-304.536 314.978,-451.692 337,-494 358.789,-535.861 400.786,-571.754 429.351,-592.865"/>
<polygon fill="black" stroke="black" points="427.593,-595.913 437.748,-598.933 431.693,-590.239 427.593,-595.913"/>
</g>
<!-- Word&#45;&gt;Wordcount -->
<g id="edge17" class="edge"><title>Word&#45;&gt;Wordcount</title>
<path fill="none" stroke="black" d="M581.061,-221.936C565.325,-211.468 542.944,-196.231 524,-182 503.631,-166.698 481.799,-149.099 462.997,-133.545"/>
<polygon fill="black" stroke="black" points="465.067,-130.715 455.138,-127.017 460.594,-136.099 465.067,-130.715"/>
</g>
<!-- Word&#45;&gt;Mediendichte -->
<g id="edge18" class="edge"><title>Word&#45;&gt;Mediendichte</title>
<path fill="none" stroke="black" d="M600.035,-217.751C598.672,-193.379 596.167,-148.607 594.543,-119.586"/>
<polygon fill="black" stroke="black" points="598.022,-119.099 593.968,-109.31 591.033,-119.49 598.022,-119.099"/>
</g>
<!-- Text&#45;&gt;Wordcount -->
<g id="edge20" class="edge"><title>Text&#45;&gt;Wordcount</title>
<path fill="none" stroke="black" d="M372.483,-218.316C377.783,-202.193 386.137,-176.774 393.966,-152.953"/>
<polygon fill="black" stroke="black" points="397.366,-153.819 397.163,-143.226 390.716,-151.633 397.366,-153.819"/>
</g>
<!-- PPT&#45;&gt;Wordcount -->
<g id="edge23" class="edge"><title>PPT&#45;&gt;Wordcount</title>
<path fill="none" stroke="black" d="M513.121,-219.696C498.98,-201.479 474.633,-170.112 453.608,-143.027"/>
<polygon fill="black" stroke="black" points="456.102,-140.531 447.205,-134.778 450.572,-144.823 456.102,-140.531"/>
</g>
<!-- PPT&#45;&gt;Mediendichte -->
<g id="edge22" class="edge"><title>PPT&#45;&gt;Mediendichte</title>
<path fill="none" stroke="black" d="M532.8,-218.596C544.46,-194.077 566.549,-147.625 580.483,-118.322"/>
<polygon fill="black" stroke="black" points="583.736,-119.632 584.869,-109.098 577.414,-116.626 583.736,-119.632"/>
</g>
<!-- ReverseImageSuche? -->
<g id="node19" class="node"><title>ReverseImageSuche?</title>
<ellipse fill="none" stroke="black" cx="762" cy="-91" rx="87.1364" ry="87.1806"/>
<ellipse fill="none" stroke="black" cx="762" cy="-91" rx="91.1385" ry="91.1846"/>
<text text-anchor="middle" x="762" y="-87.3" font-family="Times,serif" font-size="14.00">ReverseImageSuche?</text>
</g>
<!-- Image&#45;&gt;ReverseImageSuche? -->
<g id="edge26" class="edge"><title>Image&#45;&gt;ReverseImageSuche?</title>
<path fill="none" stroke="black" d="M755.844,-217.751C756.19,-210.694 756.619,-201.926 757.089,-192.326"/>
<polygon fill="black" stroke="black" points="760.598,-192.216 757.592,-182.057 753.607,-191.874 760.598,-192.216"/>
</g>
<!-- Nachricht -->
<g id="node23" class="node"><title>Nachricht</title>
<ellipse fill="none" stroke="black" cx="45" cy="-392" rx="45.244" ry="18"/>
<text text-anchor="middle" x="45" y="-388.3" font-family="Times,serif" font-size="14.00">Nachricht</text>
</g>
<!-- Tickets&#45;&gt;Nachricht -->
<g id="edge30" class="edge"><title>Tickets&#45;&gt;Nachricht</title>
<path fill="none" stroke="black" d="M149.507,-596.464C129.956,-558.401 81.6534,-464.361 58.2001,-418.699"/>
<polygon fill="black" stroke="black" points="61.2742,-417.024 53.5919,-409.728 55.0476,-420.222 61.2742,-417.024"/>
</g>
<!-- Nachricht&#45;&gt;Wordcount -->
<g id="edge31" class="edge"><title>Nachricht&#45;&gt;Wordcount</title>
<path fill="none" stroke="black" d="M46.2171,-373.877C49.5217,-339.819 61.5175,-262.993 104,-218 170.145,-147.946 280.69,-115.778 350.348,-101.809"/>
<polygon fill="black" stroke="black" points="351.167,-105.216 360.318,-99.8779 349.835,-98.3435 351.167,-105.216"/>
</g>
<!-- GroesseCommits / Zeit? -->
<g id="node25" class="node"><title>GroesseCommits / Zeit?</title>
<ellipse fill="none" stroke="black" cx="1003" cy="-392" rx="97.2471" ry="97.483"/>
<ellipse fill="none" stroke="black" cx="1003" cy="-392" rx="101.237" ry="101.483"/>
<text text-anchor="middle" x="1003" y="-388.3" font-family="Times,serif" font-size="14.00">GroesseCommits / Zeit?</text>
</g>
<!-- Commits&#45;&gt;GroesseCommits / Zeit? -->
<g id="edge33" class="edge"><title>Commits&#45;&gt;GroesseCommits / Zeit?</title>
<path fill="none" stroke="black" d="M1003,-595.737C1003,-575.321 1003,-539.562 1003,-503.703"/>
<polygon fill="black" stroke="black" points="1006.5,-503.599 1003,-493.599 999.5,-503.599 1006.5,-503.599"/>
</g>
<!-- Zeit / AnzahlCommits? -->
<g id="node26" class="node"><title>Zeit / AnzahlCommits?</title>
<ellipse fill="none" stroke="black" cx="1221" cy="-392" rx="94.3604" ry="94.7877"/>
<ellipse fill="none" stroke="black" cx="1221" cy="-392" rx="98.338" ry="98.7833"/>
<text text-anchor="middle" x="1221" y="-388.3" font-family="Times,serif" font-size="14.00">Zeit / AnzahlCommits?</text>
</g>
<!-- Commits&#45;&gt;Zeit / AnzahlCommits? -->
<g id="edge34" class="edge"><title>Commits&#45;&gt;Zeit / AnzahlCommits?</title>
<path fill="none" stroke="black" d="M1019.03,-596.823C1045.3,-570.308 1099.16,-515.954 1144.66,-470.041"/>
<polygon fill="black" stroke="black" points="1147.33,-472.317 1151.88,-462.75 1142.36,-467.39 1147.33,-472.317"/>
</g>
</g>
</svg>
